<svg width="77" height="32" viewBox="0 0 77 32" fill="none" xmlns="http://www.w3.org/2000/svg">
<rect width="77" height="32" fill="#252525"/>
<path d="M18.9168 21.185H31.5018V22.805H18.9168V21.185ZM24.1968 18.545H26.1768V21.83H24.1968V18.545ZM20.3418 11.33H30.0768V15.965H22.3368V18.29H20.3568V14.405H28.0968V12.92H20.3418V11.33ZM20.3568 17.51H30.3918V19.1H20.3568V17.51ZM34.0056 11.705H42.7956V13.295H34.0056V11.705ZM32.7156 20.9H45.2856V22.52H32.7156V20.9ZM41.7456 11.705H43.7406V13.355C43.7406 14.005 43.7306 14.665 43.7106 15.335C43.7006 16.005 43.6606 16.72 43.5906 17.48C43.5306 18.24 43.4106 19.1 43.2306 20.06L41.2356 19.88C41.4156 18.99 41.5356 18.17 41.5956 17.42C41.6656 16.67 41.7056 15.965 41.7156 15.305C41.7356 14.635 41.7456 13.985 41.7456 13.355V11.705ZM56.0544 10.445H58.0494V20.42H56.0544V10.445ZM48.7944 22.49H58.4094V24.095H48.7944V22.49ZM48.7944 19.43H50.7894V23.15H48.7944V19.43ZM50.4894 11.33C51.1994 11.33 51.8394 11.48 52.4094 11.78C52.9794 12.08 53.4294 12.495 53.7594 13.025C54.0994 13.555 54.2694 14.165 54.2694 14.855C54.2694 15.525 54.0994 16.13 53.7594 16.67C53.4294 17.2 52.9794 17.62 52.4094 17.93C51.8394 18.23 51.1994 18.38 50.4894 18.38C49.7794 18.38 49.1394 18.23 48.5694 17.93C47.9994 17.62 47.5444 17.2 47.2044 16.67C46.8744 16.13 46.7094 15.525 46.7094 14.855C46.7094 14.165 46.8744 13.555 47.2044 13.025C47.5444 12.495 47.9994 12.08 48.5694 11.78C49.1394 11.48 49.7794 11.33 50.4894 11.33ZM50.4894 13.04C50.1494 13.04 49.8394 13.115 49.5594 13.265C49.2794 13.405 49.0594 13.61 48.8994 13.88C48.7394 14.14 48.6594 14.465 48.6594 14.855C48.6594 15.225 48.7394 15.545 48.8994 15.815C49.0594 16.075 49.2794 16.28 49.5594 16.43C49.8394 16.57 50.1494 16.64 50.4894 16.64C50.8294 16.64 51.1394 16.57 51.4194 16.43C51.6994 16.28 51.9194 16.075 52.0794 15.815C52.2394 15.545 52.3194 15.225 52.3194 14.855C52.3194 14.465 52.2394 14.14 52.0794 13.88C51.9194 13.61 51.6994 13.405 51.4194 13.265C51.1394 13.115 50.8294 13.04 50.4894 13.04Z" fill="white"/>
</svg>
