<svg width="236" height="69" viewBox="0 0 236 69" fill="none" xmlns="http://www.w3.org/2000/svg">
<rect width="236" height="69" fill="white"/>
<path d="M14.5 41H20V34.5L25 41H29.5V27H25.5V34.5L19.5 27H14.5V41Z" fill="#595959"/>
<path fill-rule="evenodd" clip-rule="evenodd" d="M32 41L37 27H42.5L48.5 41H43.5L42 39H38.5L36.5 41H32ZM38.5 36.5L40 31L42 36.5H38.5Z" fill="#595959"/>
<path d="M46.5 27L52.5 41H56.5L63 27H58L55 35.5L51.5 27H46.5Z" fill="#595959"/>
<path d="M65 27V41H75V38H69.5V35.5H75V33.5H69.5V30H75V27H65Z" fill="#595959"/>
<path fill-rule="evenodd" clip-rule="evenodd" d="M78 27V41H82.5V36.5L86 41H91L87.8128 36.5C87.8128 36.5 91 35.5 91 32C91 28.5 88.6256 27 87.8128 27H78ZM82.3036 33.5V30H86V33.5H82.3036Z" fill="#595959"/>
<path d="M104 41H98.5781V25H104.109C105.698 25 107.063 25.3203 108.203 25.9609C109.349 26.5964 110.229 27.5104 110.844 28.7031C111.458 29.8958 111.766 31.3229 111.766 32.9844C111.766 34.651 111.456 36.0833 110.836 37.2812C110.221 38.4792 109.333 39.3984 108.172 40.0391C107.016 40.6797 105.625 41 104 41ZM101.477 38.4922H103.859C104.974 38.4922 105.904 38.2891 106.648 37.8828C107.393 37.4714 107.953 36.8594 108.328 36.0469C108.703 35.2292 108.891 34.2083 108.891 32.9844C108.891 31.7604 108.703 30.7448 108.328 29.9375C107.953 29.125 107.398 28.5182 106.664 28.1172C105.935 27.7109 105.029 27.5078 103.945 27.5078H101.477V38.4922ZM119.707 41.2344C118.504 41.2344 117.465 40.9844 116.59 40.4844C115.72 39.9792 115.051 39.2656 114.582 38.3437C114.113 37.4167 113.879 36.3255 113.879 35.0703C113.879 33.8359 114.113 32.7526 114.582 31.8203C115.056 30.8828 115.717 30.1536 116.566 29.6328C117.415 29.1068 118.413 28.8438 119.559 28.8438C120.298 28.8438 120.996 28.9635 121.652 29.2031C122.314 29.4375 122.897 29.8021 123.402 30.2969C123.913 30.7917 124.314 31.4219 124.605 32.1875C124.897 32.9479 125.043 33.8542 125.043 34.9062V35.7734H115.207V33.8672H122.332C122.327 33.3255 122.21 32.8437 121.98 32.4219C121.751 31.9948 121.431 31.6589 121.02 31.4141C120.613 31.1693 120.139 31.0469 119.598 31.0469C119.02 31.0469 118.512 31.1875 118.074 31.4687C117.637 31.7448 117.296 32.1094 117.051 32.5625C116.811 33.0104 116.689 33.5026 116.684 34.0391V35.7031C116.684 36.401 116.811 37 117.066 37.5C117.322 37.9948 117.678 38.375 118.137 38.6406C118.595 38.901 119.132 39.0312 119.746 39.0312C120.158 39.0312 120.53 38.974 120.863 38.8594C121.197 38.7396 121.486 38.5651 121.73 38.3359C121.975 38.1068 122.16 37.8229 122.285 37.4844L124.926 37.7812C124.759 38.4792 124.441 39.0885 123.973 39.6094C123.509 40.125 122.915 40.526 122.191 40.8125C121.467 41.0937 120.639 41.2344 119.707 41.2344ZM137.811 29L133.537 41H130.412L126.139 29H129.154L131.912 37.9141H132.037L134.803 29H137.811ZM144.672 41.2344C143.469 41.2344 142.43 40.9844 141.555 40.4844C140.685 39.9792 140.016 39.2656 139.547 38.3437C139.078 37.4167 138.844 36.3255 138.844 35.0703C138.844 33.8359 139.078 32.7526 139.547 31.8203C140.021 30.8828 140.682 30.1536 141.531 29.6328C142.38 29.1068 143.378 28.8438 144.523 28.8438C145.263 28.8438 145.961 28.9635 146.617 29.2031C147.279 29.4375 147.862 29.8021 148.367 30.2969C148.878 30.7917 149.279 31.4219 149.57 32.1875C149.862 32.9479 150.008 33.8542 150.008 34.9062V35.7734H140.172V33.8672H147.297C147.292 33.3255 147.174 32.8437 146.945 32.4219C146.716 31.9948 146.396 31.6589 145.984 31.4141C145.578 31.1693 145.104 31.0469 144.562 31.0469C143.984 31.0469 143.477 31.1875 143.039 31.4687C142.602 31.7448 142.26 32.1094 142.016 32.5625C141.776 33.0104 141.654 33.5026 141.648 34.0391V35.7031C141.648 36.401 141.776 37 142.031 37.5C142.286 37.9948 142.643 38.375 143.102 38.6406C143.56 38.901 144.096 39.0312 144.711 39.0312C145.122 39.0312 145.495 38.974 145.828 38.8594C146.161 38.7396 146.451 38.5651 146.695 38.3359C146.94 38.1068 147.125 37.8229 147.25 37.4844L149.891 37.7812C149.724 38.4792 149.406 39.0885 148.938 39.6094C148.474 40.125 147.88 40.526 147.156 40.8125C146.432 41.0937 145.604 41.2344 144.672 41.2344ZM155.229 25V41H152.4V25H155.229ZM163.371 41.2344C162.199 41.2344 161.184 40.9766 160.324 40.4609C159.465 39.9453 158.798 39.224 158.324 38.2969C157.855 37.3698 157.621 36.2865 157.621 35.0469C157.621 33.8073 157.855 32.7214 158.324 31.7891C158.798 30.8568 159.465 30.1328 160.324 29.6172C161.184 29.1016 162.199 28.8438 163.371 28.8438C164.543 28.8438 165.559 29.1016 166.418 29.6172C167.277 30.1328 167.941 30.8568 168.41 31.7891C168.884 32.7214 169.121 33.8073 169.121 35.0469C169.121 36.2865 168.884 37.3698 168.41 38.2969C167.941 39.224 167.277 39.9453 166.418 40.4609C165.559 40.9766 164.543 41.2344 163.371 41.2344ZM163.387 38.9687C164.022 38.9687 164.553 38.7943 164.98 38.4453C165.408 38.0911 165.725 37.6172 165.934 37.0234C166.147 36.4297 166.254 35.7682 166.254 35.0391C166.254 34.3047 166.147 33.6406 165.934 33.0469C165.725 32.4479 165.408 31.9714 164.98 31.6172C164.553 31.263 164.022 31.0859 163.387 31.0859C162.736 31.0859 162.194 31.263 161.762 31.6172C161.335 31.9714 161.014 32.4479 160.801 33.0469C160.592 33.6406 160.488 34.3047 160.488 35.0391C160.488 35.7682 160.592 36.4297 160.801 37.0234C161.014 37.6172 161.335 38.0911 161.762 38.4453C162.194 38.7943 162.736 38.9687 163.387 38.9687ZM171.521 45.5V29H174.303V30.9844H174.467C174.613 30.6927 174.818 30.3828 175.084 30.0547C175.35 29.7214 175.709 29.4375 176.162 29.2031C176.615 28.9635 177.193 28.8438 177.896 28.8438C178.824 28.8438 179.66 29.0807 180.404 29.5547C181.154 30.0234 181.748 30.7187 182.186 31.6406C182.628 32.5573 182.85 33.6823 182.85 35.0156C182.85 36.3333 182.633 37.4531 182.201 38.375C181.769 39.2969 181.18 40 180.436 40.4844C179.691 40.9688 178.847 41.2109 177.904 41.2109C177.217 41.2109 176.646 41.0964 176.193 40.8672C175.74 40.638 175.376 40.362 175.1 40.0391C174.829 39.7109 174.618 39.401 174.467 39.1094H174.35V45.5H171.521ZM174.295 35C174.295 35.776 174.404 36.4557 174.623 37.0391C174.847 37.6224 175.167 38.0781 175.584 38.4062C176.006 38.7292 176.516 38.8906 177.115 38.8906C177.74 38.8906 178.264 38.724 178.686 38.3906C179.107 38.0521 179.425 37.5911 179.639 37.0078C179.857 36.4193 179.967 35.75 179.967 35C179.967 34.2552 179.86 33.5937 179.646 33.0156C179.433 32.4375 179.115 31.9844 178.693 31.6562C178.271 31.3281 177.745 31.1641 177.115 31.1641C176.511 31.1641 175.998 31.3229 175.576 31.6406C175.154 31.9583 174.834 32.4036 174.615 32.9766C174.402 33.5495 174.295 34.224 174.295 35ZM190.584 41.2344C189.381 41.2344 188.342 40.9844 187.467 40.4844C186.597 39.9792 185.928 39.2656 185.459 38.3437C184.99 37.4167 184.756 36.3255 184.756 35.0703C184.756 33.8359 184.99 32.7526 185.459 31.8203C185.933 30.8828 186.594 30.1536 187.443 29.6328C188.292 29.1068 189.29 28.8438 190.436 28.8438C191.175 28.8438 191.873 28.9635 192.529 29.2031C193.191 29.4375 193.774 29.8021 194.279 30.2969C194.79 30.7917 195.191 31.4219 195.482 32.1875C195.774 32.9479 195.92 33.8542 195.92 34.9062V35.7734H186.084V33.8672H193.209C193.204 33.3255 193.087 32.8437 192.857 32.4219C192.628 31.9948 192.308 31.6589 191.896 31.4141C191.49 31.1693 191.016 31.0469 190.475 31.0469C189.896 31.0469 189.389 31.1875 188.951 31.4687C188.514 31.7448 188.173 32.1094 187.928 32.5625C187.688 33.0104 187.566 33.5026 187.561 34.0391V35.7031C187.561 36.401 187.688 37 187.943 37.5C188.199 37.9948 188.555 38.375 189.014 38.6406C189.472 38.901 190.008 39.0312 190.623 39.0312C191.035 39.0312 191.407 38.974 191.74 38.8594C192.074 38.7396 192.363 38.5651 192.607 38.3359C192.852 38.1068 193.037 37.8229 193.162 37.4844L195.803 37.7812C195.636 38.4792 195.318 39.0885 194.85 39.6094C194.386 40.125 193.792 40.526 193.068 40.8125C192.344 41.0937 191.516 41.2344 190.584 41.2344ZM198.313 41V29H201.055V31H201.18C201.398 30.3073 201.773 29.7734 202.305 29.3984C202.841 29.0182 203.453 28.8281 204.141 28.8281C204.297 28.8281 204.471 28.8359 204.664 28.8516C204.862 28.862 205.026 28.8802 205.156 28.9062V31.5078C205.036 31.4661 204.846 31.4297 204.586 31.3984C204.331 31.362 204.083 31.3437 203.844 31.3437C203.328 31.3437 202.865 31.4557 202.453 31.6797C202.047 31.8984 201.727 32.2031 201.492 32.5937C201.258 32.9844 201.141 33.4349 201.141 33.9453V41H198.313ZM216.52 32.1719L213.941 32.4531C213.868 32.1927 213.741 31.9479 213.559 31.7188C213.382 31.4896 213.142 31.3047 212.84 31.1641C212.538 31.0234 212.168 30.9531 211.73 30.9531C211.142 30.9531 210.647 31.0807 210.246 31.3359C209.85 31.5911 209.655 31.9219 209.66 32.3281C209.655 32.6771 209.783 32.9609 210.043 33.1797C210.309 33.3984 210.746 33.5781 211.355 33.7188L213.402 34.1562C214.538 34.401 215.382 34.7891 215.934 35.3203C216.491 35.8516 216.772 36.5469 216.777 37.4062C216.772 38.1615 216.551 38.8281 216.113 39.4062C215.681 39.9792 215.079 40.4271 214.309 40.75C213.538 41.0729 212.652 41.2344 211.652 41.2344C210.184 41.2344 209.001 40.9271 208.105 40.3125C207.21 39.6927 206.676 38.8307 206.504 37.7266L209.262 37.4609C209.387 38.0026 209.652 38.4115 210.059 38.6875C210.465 38.9635 210.993 39.1016 211.645 39.1016C212.316 39.1016 212.855 38.9635 213.262 38.6875C213.673 38.4115 213.879 38.0703 213.879 37.6641C213.879 37.3203 213.746 37.0365 213.48 36.8125C213.22 36.5885 212.814 36.4167 212.262 36.2969L210.215 35.8672C209.064 35.6276 208.212 35.224 207.66 34.6562C207.108 34.0833 206.835 33.3594 206.84 32.4844C206.835 31.7448 207.035 31.1042 207.441 30.5625C207.853 30.0156 208.423 29.5937 209.152 29.2969C209.887 28.9948 210.733 28.8438 211.691 28.8438C213.098 28.8438 214.204 29.1432 215.012 29.7422C215.824 30.3411 216.327 31.151 216.52 32.1719Z" fill="#828282"/>
</svg>
